<?xml version="1.0" encoding="UTF-8" standalone="no"?>
<svg width="18px" height="18px" viewBox="0 0 18 18" version="1.1" xmlns="http://www.w3.org/2000/svg" xmlns:xlink="http://www.w3.org/1999/xlink">
    <!-- Generator: Sketch 40.3 (33839) - http://www.bohemiancoding.com/sketch -->
    <title>Gift Copy 9</title>
    <desc>Created with Sketch.</desc>
    <defs>
        <polygon id="path-1" points="-2.84217094e-14 17.864865 18 17.864865 18 -0.000135 -2.84217094e-14 -0.000135"></polygon>
    </defs>
    <g id="Mystery-Box" stroke="none" stroke-width="1" fill="none" fill-rule="evenodd">
        <g id="Fortune-Wheel-Copy-5" transform="translate(-174.000000, -259.000000)">
            <g id="spinner" transform="translate(51.000000, 180.000000)">
                <g id="Group-4" transform="translate(0.000000, 0.987654)">
                    <g id="Group-17" transform="translate(116.000000, 71.000000)">
                        <g id="Group-18">
                            <g id="Gift-Copy-9" transform="translate(7.000000, 7.012346)">
                                <path d="M1.89785455,7.29117 L1.89785455,15.31647 C1.89785455,16.47522 2.75203636,17.41482 3.80585455,17.41482 L14.1943091,17.41482 C15.2481273,17.41482 16.1023091,16.47522 16.1023091,15.31647 L16.1023091,7.29117 L1.89785455,7.29117 L1.89785455,7.29117 Z" id="Fill-1" fill="#FFFFFF" opacity="0.319999993"></path>
                                <path d="M1.89785455,7.29117 L1.89785455,15.31647 C1.89785455,16.47522 2.75203636,17.41482 3.80585455,17.41482 L14.1943091,17.41482 C15.2481273,17.41482 16.1023091,16.47522 16.1023091,15.31647 L16.1023091,7.29117 L1.89785455,7.29117 L1.89785455,7.29117 Z" id="Stroke-3" stroke="#FFFFFF" stroke-width="0.654545455" stroke-linecap="round" stroke-linejoin="round"></path>
                                <mask id="mask-2" fill="white">
                                    <use xlink:href="#path-1"></use>
                                </mask>
                                <g id="Clip-6"></g>
                                <polygon id="Fill-5" fill="#FFFFFF" opacity="0.319999993" mask="url(#mask-2)" points="0.409090909 7.291215 17.5909091 7.291215 17.5909091 5.112315 0.409090909 5.112315"></polygon>
                                <polygon id="Stroke-7" stroke="#FFFFFF" stroke-width="0.654545455" stroke-linecap="round" stroke-linejoin="round" mask="url(#mask-2)" points="0.409090909 7.291215 17.5909091 7.291215 17.5909091 5.112315 0.409090909 5.112315"></polygon>
                                <path d="M9,5.05602 L9,17.26002" id="Stroke-8" stroke="#FFFFFF" stroke-width="0.818181818" stroke-linecap="round" stroke-linejoin="round" mask="url(#mask-2)"></path>
                                <path d="M6.88115455,0.45 L6.88115455,0.45 C5.71074545,0.45 4.76206364,1.49355 4.76206364,2.781 L4.76206364,2.781 C4.76206364,4.06845 5.71074545,5.11245 6.88115455,5.11245 L9.00024545,5.11245 L9.00024545,2.781 C9.00024545,1.49355 8.05156364,0.45 6.88115455,0.45 L6.88115455,0.45 Z" id="Stroke-9" stroke="#FFFFFF" stroke-width="0.654545455" mask="url(#mask-2)"></path>
                                <path d="M11.1188864,0.45 C9.94847727,0.45 8.99979545,1.49355 8.99979545,2.781 L8.99979545,5.11245 L11.1188864,5.11245 C12.2892955,5.11245 13.2379773,4.06845 13.2379773,2.781 L13.2379773,2.781 C13.2379773,1.49355 12.2892955,0.45 11.1188864,0.45 L11.1188864,0.45 Z" id="Stroke-10" stroke="#FFFFFF" stroke-width="0.654545455" mask="url(#mask-2)"></path>
                            </g>
                        </g>
                    </g>
                </g>
            </g>
        </g>
    </g>
</svg>