<?xml version="1.0" encoding="UTF-8" standalone="no"?>
<svg width="24px" height="20px" viewBox="0 0 24 20" version="1.1" xmlns="http://www.w3.org/2000/svg" xmlns:xlink="http://www.w3.org/1999/xlink">
    <!-- Generator: Sketch 40.3 (33839) - http://www.bohemiancoding.com/sketch -->
    <title>NO LUCK Copy 2</title>
    <desc>Created with Sketch.</desc>
    <defs></defs>
    <g id="Mystery-Box" stroke="none" stroke-width="1" fill="none" fill-rule="evenodd">
        <g id="Fortune-Wheel-Copy-5" transform="translate(-171.000000, -258.000000)" fill="#FFFFFF">
            <g id="spinner" transform="translate(51.000000, 180.000000)">
                <g id="Group-4" transform="translate(0.000000, 0.987654)">
                    <g id="Group-17" transform="translate(116.000000, 71.000000)">
                        <g id="Group-18">
                            <path d="M14.7227843,14.2276706 C14.965601,14.2276706 15.256981,14.4119577 15.256981,10.7747123 C15.256981,5.98324772 14.8004856,6.15783549 14.586807,6.15783549 L13.8486443,6.15783549 C13.6641036,6.15783549 13.4504249,6.12873753 13.4504249,6.26452803 C13.4504249,6.48761241 13.9457709,8.0976997 13.9457709,9.91147274 C13.9457709,10.0472632 13.9651963,10.464334 13.8680696,10.464334 C13.7806556,10.464334 13.7320923,10.3382429 13.7029543,10.2897463 C11.8866856,6.93378118 11.1485229,6.15783549 10.7794415,6.15783549 L10.0121408,6.15783549 C9.8470255,6.15783549 9.34196682,5.98324772 9.34196682,10.7747123 C9.34196682,14.4119577 9.63334682,14.2276706 9.8761635,14.2276706 L10.7794415,14.2276706 C10.8668555,14.2276706 11.0513962,14.2664679 11.0513962,14.1403767 C11.0513962,13.6457113 10.6531769,12.6563806 10.6531769,9.92117206 C10.6531769,9.72718564 10.5851882,8.66995965 10.8280049,8.66995965 C11.1388102,8.66995965 11.9935249,10.2994456 12.1197896,10.5613273 C13.6349656,13.6263127 13.0327803,14.2276706 13.7029543,14.2276706 L14.7227843,14.2276706 Z M19.6859571,14.3731604 C21.6479158,14.3731604 22.4152165,12.9667589 22.4152165,11.2887763 C22.4152165,8.79605082 21.0165925,6.01234568 19.2003238,6.01234568 C17.384055,6.01234568 15.985431,8.79605082 15.985431,11.2887763 C15.985431,12.9667589 16.7527317,14.3731604 18.7146904,14.3731604 L19.6859571,14.3731604 Z M19.2003238,12.6466813 C18.1707811,12.6466813 17.558883,12.2102118 17.558883,11.0753913 C17.558883,8.93184131 18.5495751,7.58363569 19.2003238,7.58363569 C19.8510724,7.58363569 20.8417645,8.93184131 20.8417645,11.0753913 C20.8417645,12.2102118 20.2298665,12.6466813 19.2003238,12.6466813 L19.2003238,12.6466813 Z M8.36098745,25.8668559 C8.47753946,25.8668559 8.77863213,25.9153525 8.77863213,25.721366 C8.77863213,25.6728694 8.39983812,23.8009005 8.21529745,23.8009005 C7.97248078,23.8009005 7.42857143,24.6253428 6.53500607,24.6253428 C6.00080939,24.6253428 5.41804937,24.3052652 5.41804937,22.9667589 C5.41804937,20.2897463 6.54471874,18.2043922 6.54471874,17.9910072 C6.54471874,17.8164194 6.42816673,17.7970208 6.36017807,17.7970208 L4.81586402,17.7970208 C4.53419668,17.7970208 4,22.2781071 4,23.5778161 C4.04856333,25.5467783 3.89316066,25.8862545 4.40793201,25.8668559 L8.36098745,25.8668559 Z M13.5572643,17.7970208 C13.4698503,17.7970208 13.1881829,17.7679228 13.1881829,17.9231119 C13.1881829,18.0976997 13.6641036,18.9803379 13.6641036,21.5021614 C13.6641036,24.1597754 12.6151356,24.2858665 12.1295022,24.2858665 C11.5564549,24.2858665 10.7600162,23.6069141 10.7600162,21.4051682 C10.7600162,19.1743243 11.2456495,18.1461963 11.2456495,17.9231119 C11.2456495,17.7970208 11.1290975,17.7970208 11.0319709,17.7970208 L9.68191016,17.7970208 C9.55564549,17.7970208 9.18656414,18.6020644 9.18656414,21.7058471 C9.18656414,24.6059441 10.3035208,26.0123457 12.1295022,26.0123457 C14.208013,26.0123457 15.082153,24.2955659 15.082153,21.4439655 C15.082153,17.9522099 14.703359,17.7970208 14.5091056,17.7970208 L13.5572643,17.7970208 Z M18.8798057,26.0123457 C20.2395791,26.0123457 21.3468231,25.1782041 21.3468231,23.7427046 C21.3468231,23.6457113 21.2691218,22.8697657 21.1331445,22.8697657 C21.0457305,22.8697657 20.9097531,24.2858665 19.3265884,24.2858665 C18.4815864,24.2858665 17.2189397,23.5390188 17.2189397,21.6864485 C17.2189397,20.4740334 17.8211251,19.0288345 19.2391744,19.0288345 C20.4726831,19.0288345 19.9384864,19.9405707 20.3367058,19.9405707 C20.9486038,19.9405707 21.3371105,19.6204931 21.3371105,19.0579325 C21.3371105,18.0104058 20.0356131,17.6515309 19.1906111,17.6515309 C16.830433,17.6515309 15.6454877,19.95027 15.6454877,22.0550227 C15.6454877,24.0142855 16.6750304,26.0123457 18.8798057,26.0123457 L18.8798057,26.0123457 Z M26.222582,17.7970208 C25.9991906,17.8067201 26.0089033,17.8455174 25.9409146,18.0589024 C25.4747066,19.6883884 24.0372319,21.3566716 23.8235532,21.3566716 C23.6292999,21.3566716 23.6584379,20.8523069 23.6584379,20.7456144 C23.6584379,19.3489121 24.1343586,17.9619092 24.1343586,17.9522099 C24.1343586,17.7679228 23.9303926,17.7970208 23.8041279,17.7970208 L22.8231485,17.7970208 C22.6580332,17.7970208 22.1529745,17.622433 22.1529745,22.4138976 C22.1529745,26.051143 22.4443545,25.8668559 22.6871712,25.8668559 L23.8721166,25.8668559 C23.9789559,25.8668559 24.0566572,25.8183593 24.0566572,25.7019674 C24.0566572,25.6243728 23.7264265,23.8978937 23.7264265,23.5099208 C23.7264265,22.9570595 24.5617159,22.2393098 24.7948199,22.2393098 C24.9599352,22.2393098 25.8146499,23.2771371 25.8632133,25.478883 C25.8632133,25.5855756 25.8340753,25.8668559 26.0768919,25.8668559 L27.2618373,25.8668559 C27.475516,25.8668559 27.679482,25.9250518 27.679482,25.6631701 C27.679482,22.8212691 25.8146499,21.279077 25.8146499,21.0656919 C25.8146499,20.8717055 27.4658033,19.3586114 27.4658033,17.9134126 C27.4658033,17.7582235 27.2521246,17.7970208 27.154998,17.7970208 L26.222582,17.7970208 Z" id="NO-LUCK-Copy-2"></path>
                        </g>
                    </g>
                </g>
            </g>
        </g>
    </g>
</svg>